<svg>` tag.
- Apply responsive Tailwind classes to the `<svg>`: `w-full h-auto max-w-2xl drop-shadow-2xl`. Keep its original `viewBox`.

3. APPLY THE "OBSIDIAN & NEON" PHYSICS:
- Analyze the `<path>` or `<g>` tags in the SVG. Identify the shapes for the 5 main islands (Sumatra, Java, Kalimantan, Sulawesi, Papua).
- Convert these specific paths into dynamic React elements. Apply the following conditional Tailwind classes based on the `hoveredRegion` state:
  - Default state: `fill-zinc-900 stroke-zinc-800 stroke-[1px] transition-all duration-500 cursor-pointer`
  - Active state (when hovered): `fill-zinc-700 stroke-white stroke-[1.5px] drop-shadow-[0_0_15px_rgba(255,255,255,0.5)]`
- Ensure the fade-in/fade-out transitions are smooth.

Here is the raw SVG code from Figma to integrate:

[ <svg width="1652" height="602" viewBox="0 0 1652 602" fill="none" xmlns="http://www.w3.org/2000/svg">

<path d="M568.92 503.656L568.604 501.246H568.498H568.182L567.866 501.351L567.549 501.456L567.233 501.141L567.127 500.722L567.022 494.542L566.916 493.599L566.811 491.923V491.504L566.705 491.189L566.389 490.77L565.651 490.351L563.964 490.246L563.225 489.932L561.96 490.037L561.222 489.932H559.218L557.847 489.618L556.687 488.675L556.16 487.732L555.632 486.475L554.367 481.028L554.261 480.713L553.312 481.656L549.41 484.59L548.989 485.009L548.25 485.847L547.934 486.161H547.828L547.723 485.742L547.618 484.904L547.512 484.59H547.407L547.09 484.694H546.985H546.668L544.454 484.38L543.61 484.799L543.505 485.113L543.399 485.532V486.475L543.294 487.208L542.977 487.732L541.185 490.561L540.657 491.085L540.552 491.504L540.446 492.237L549.305 496.741L550.465 496.846L550.781 496.951L551.52 497.475L551.625 497.58L552.574 498.418L552.68 498.732H552.996H553.418H553.734L556.16 500.094L556.898 500.199L557.847 500.303L558.796 500.618L560.589 501.456V501.141L561.96 501.875L562.698 501.979L563.436 502.084L563.858 502.189L564.385 502.713H564.702L568.92 503.656Z" fill="white" stroke="#DA3640" stroke-linecap="round"/>

<path d="M117.453 61.0505L117.348 61.3648L116.504 61.8886L114.922 62.4124L114.5 62.5171L114.395 62.9362L114.289 63.46V64.7171L115.133 63.879L115.66 63.46L116.399 63.1457L116.504 63.0409L117.031 62.3076H117.137L117.242 62.2029L118.508 65.4504L118.824 65.7647L120.828 65.4504H121.672L122.41 65.7647L123.675 66.6027L124.519 66.7075L124.941 66.8122L125.784 68.0693L126.101 68.3836H126.839H127.577L127.999 68.4884L128.421 69.7455L128.843 70.1645L129.265 70.5835L129.792 70.8978L132.217 71.3169L132.639 71.7359L133.061 74.5644L133.483 75.5072L134.327 76.3453L136.963 78.3357L142.341 80.3261L143.501 80.6404L144.029 80.9547L144.451 81.2689L144.872 81.5832L146.243 81.688L146.771 82.0022L147.087 82.4213L147.403 82.7355L151.305 84.8307L157.106 89.8591L157.633 90.2782L158.898 90.5924L159.426 90.9067L160.164 91.64L161.008 92.1638L161.429 92.5829L161.746 93.5257L162.062 93.9447L162.906 94.7828L163.855 95.7256L165.015 96.2494L168.495 97.0875L169.761 97.6113H170.288L170.815 98.0303L171.975 100.125L173.768 101.802L174.506 102.744L174.612 104.002L175.772 103.687L176.615 104.421L177.354 105.259L178.197 105.678L179.041 106.201L179.463 107.354L179.779 111.544L179.674 111.963L179.357 112.487L179.041 112.906L178.724 113.43L178.619 113.954L178.514 114.268L178.197 114.792L178.092 115.106L178.408 115.42L178.724 115.525L179.041 115.63L179.357 115.735L179.674 116.049V116.154L179.568 116.258V116.573L180.412 117.83L180.306 118.144V118.458H180.623L180.939 118.353L181.045 117.934V117.62L180.728 117.515L180.623 117.201V115.944L180.517 115.839L179.357 115.106L179.252 114.792L179.674 114.373L180.834 113.849L182.099 113.954L182.943 115.315V115.735V116.677V117.201L183.365 118.353V118.773L183.681 119.506L184.103 120.449L184.63 120.972L185.157 120.658L185.052 120.134L184.525 118.877L184.419 118.353V116.782L184.525 116.258L184.947 115.525L185.368 115.001L185.896 114.687L186.634 114.582H187.478L187.794 114.687L187.899 115.001V115.315L188.005 115.735L188.321 115.839L188.848 116.154L189.165 116.258V116.573L189.27 117.515L189.376 117.83L189.692 118.353L189.798 118.668L189.903 118.773L190.852 119.506L191.169 119.611L191.274 119.715V120.03L190.536 122.125L190.009 127.153L190.114 128.515L190.219 129.667L190.641 131.239L191.169 133.648L191.485 137.315V138.258L190.958 139.934V140.039L190.641 141.296L190.536 142.657L190.641 143.496L190.958 144.019L191.379 144.438L192.75 145.381L193.172 145.8L193.489 146.324L194.332 148.733L195.598 151.667L195.914 152.819L196.02 153.552L195.914 154.076L195.598 154.6L195.281 155.019L194.86 155.438L192.645 156.695L191.485 157.219L190.958 157.533L183.786 160.571L183.048 160.99L182.732 161.305L182.626 161.619L182.31 161.933V162.247V162.562L182.416 162.876L184.103 164.133L184.419 164.552L184.736 164.971V165.39V166.647L184.841 167.066L184.947 167.381L185.263 167.695L186.845 168.533L187.267 168.847L187.583 169.161L187.899 169.58L188.005 169.999L188.11 170.523L188.005 171.361L187.583 172.933V173.352V173.876L187.688 174.609L187.794 175.133V175.866L187.688 178.275V179.847V180.266L187.583 180.58L187.267 180.894L186.95 181.209L186.845 181.313L186.528 181.732L186.212 182.466L186.107 182.885V183.618L186.212 184.561L185.79 184.875L185.263 184.98H184.841H184.419L183.892 184.666L183.154 184.247L182.416 183.513L181.994 183.199L181.572 183.094L179.99 182.675L178.83 182.256L178.303 181.942L177.775 181.628L176.404 181.313L174.717 180.58L173.768 180.475L173.346 180.58L173.03 180.685L172.502 180.79L171.975 180.685H171.553L171.132 180.371L169.971 179.637H169.655H169.339L169.233 179.952V180.266L169.55 181.104L169.971 181.523L170.288 181.837L170.604 181.942L170.71 182.047L171.026 182.571L171.342 182.885L171.659 182.99L172.186 183.304H172.502L172.819 183.409L172.924 183.828L173.03 184.247L173.346 185.504L173.663 186.028L175.244 187.599L175.561 188.018L175.666 188.542L176.194 189.275L177.037 190.951L177.143 191.37L177.248 191.685L177.143 192.104V192.627L176.826 193.361L176.51 193.675L176.088 193.989L174.506 194.513L173.768 194.618H173.346L172.397 194.303L172.081 193.884L171.975 193.78H171.659H169.444L169.022 193.675L168.706 193.57L168.39 193.256L167.968 192.523L167.862 192.208L167.546 192.104H167.23H166.808L166.491 191.999L165.542 191.475L165.015 191.37H164.277L163.433 191.685L160.797 193.046L159.953 193.465L159.215 193.57L158.266 193.675L157.106 193.989L156.684 194.094L156.262 194.513L153.731 197.865L149.513 202.37L149.091 202.265L148.985 201.951L149.091 201.637L149.513 201.113L149.618 200.799V199.96L149.302 199.541L148.563 199.227L147.825 198.913L148.563 197.341L148.669 196.503L148.353 193.989L148.247 193.151L147.825 192.627L147.403 192.942V192.418L147.509 190.742V189.904L147.087 189.17L146.56 188.856L145.611 189.17L145.294 188.227L145.611 184.98L145.505 183.618L144.24 182.256L143.818 181.942L143.291 181.628L143.185 181.104L143.291 179.742L143.185 178.485L141.076 171.466L138.65 165.704L138.229 164.866L138.123 164.552L138.229 164.133L138.334 163.714V163.295L138.229 162.876L136.858 161.305L136.436 160.885L136.014 159.524L135.698 158.686V157.952L135.592 157.847L135.276 157.533L134.854 157.428H134.537L134.221 157.324L134.116 157.009L133.799 156.171L133.483 155.438V155.333L134.01 155.229L134.327 155.333L134.643 155.438L134.748 155.752V156.067L135.065 156.486L135.487 156.067L136.33 154.809L136.647 154.286L137.49 153.552L137.596 153.133V151.876L137.49 151.352L136.963 151.038H136.119L136.014 150.724V150.2V149.676L135.592 148.943L135.17 148.419L133.905 147.476L133.483 147.791L133.377 147.895L133.483 148.419L133.905 148.733V149.048L133.799 149.467L133.694 149.572L133.377 149.886L132.639 149.467L131.479 148.524L128.526 144.229L126.944 142.448L123.675 140.458L122.937 140.353L122.41 140.039H121.672H120.828H120.406L120.301 139.934V139.41L120.195 139.305L120.09 138.991L119.668 138.886H118.93H118.086H117.348L117.031 138.572L116.926 137.629L116.504 137.21L115.239 136.372L113.235 134.696L111.442 133.543L112.286 129.248V128.201L111.969 126.839L111.442 125.582L111.126 124.744L110.809 124.429L110.493 124.325H110.177L109.86 124.01L109.544 123.591L108.7 121.077L108.384 119.401V118.982L108.489 118.563L108.806 117.83V117.515V116.782L108.911 116.468L109.649 116.049L109.966 115.63L110.071 115.315L109.966 115.001L109.544 114.268L109.227 113.116L109.122 112.592L109.227 111.858L109.333 111.544L109.649 111.125L109.544 110.706L109.227 110.182L108.806 110.078L108.278 109.763L107.751 109.449L107.329 109.135L106.38 107.773L106.064 107.459L105.22 107.354L104.798 107.249L104.482 106.935L104.376 106.621L104.271 106.201L104.587 104.63L104.06 101.802L103.744 101.278V100.964H103.849L104.165 100.859L104.693 100.964H105.009L105.431 100.859L105.536 99.7065L105.431 99.2874L105.326 98.8684L104.482 97.6113L104.376 97.1922L104.271 96.6684L104.165 96.2494L104.06 95.9351L103.744 95.6209L103.216 95.0971L102.9 94.678L103.216 94.3638L103.744 94.259L105.958 93.7352L106.802 93.2114L107.329 92.0591L106.907 90.9067L106.591 90.802L105.22 89.8591L104.798 89.4401L104.693 89.0211L104.376 88.4973L104.271 88.0782V87.6592L104.587 87.1354L104.693 86.7164L104.587 86.4021L104.06 85.8783L103.744 85.4593L103.427 84.726L103.322 84.3069L103.005 83.8879L102.9 83.7831L102.584 83.6784L102.162 83.3641L101.845 82.8403L101.318 80.8499L100.896 80.0118L99.9472 78.65L99.8417 78.1262V77.8119L99.9472 77.3929L100.264 77.2881L100.58 76.9738L103.427 74.7739L103.955 73.8311V73.7263L103.849 73.412L103.744 72.6787L104.06 71.5264L104.798 72.0502H105.22L105.536 71.9454L105.642 71.6311L105.747 71.3169L106.064 70.8978L106.486 70.4788L107.435 69.6407L107.962 69.1169L108.278 68.5931L108.384 68.0693L108.489 67.336L108.595 66.6027L108.7 66.1837L109.017 64.8218L109.438 63.6695L109.86 61.9933L110.177 61.5743L110.493 61.26L110.598 60.841L110.493 60.422L110.177 59.8982V59.4791L110.598 59.3744H111.548L111.969 59.2696L112.391 58.9553L112.813 58.4315L113.129 58.3268L114.289 58.0125H114.711L117.348 58.3268H117.453V61.0505Z" fill="white" stroke="#DA3640" stroke-linecap="round"/>

<path d="M127.683 151.248L127.261 151.562L126.839 151.981L126.523 152.295L125.784 151.876L125.257 151.038L124.835 150.619L124.413 150.305L123.675 150.41L123.359 150.933L123.043 151.457L123.148 151.876L123.464 152.295L123.886 152.4L124.308 152.505L125.574 153.029L126.734 153.133H127.894L128.632 153.029H128.526H128.632L129.37 152.924L128.948 152.191L128.21 151.352L127.683 151.248Z" fill="white" stroke="#DA3640" stroke-linecap="round"/>

<path d="M125.046 216.931L124.73 215.15L123.781 213.16L122.41 211.484L121.039 210.96L119.668 211.274L118.824 211.379L118.508 211.484L118.824 211.903L119.246 212.322L119.773 212.636L120.195 212.95L120.933 214.103L121.882 216.303L122.41 217.455L126.206 222.798L127.366 224.998H127.683L127.577 224.579L127.472 224.055V223.636V223.322L127.788 222.903L127.894 222.484V222.798L128.21 221.436L127.05 220.074L125.89 218.712L125.046 216.931Z" fill="white" stroke="#DA3640" stroke-linecap="round"/>

<path d="M125.89 227.617V227.721H125.784H125.89V227.617V227.512H125.784H125.89V227.617L126.206 227.093V226.36V225.626L125.784 224.893L126.101 224.16L125.679 222.902L124.097 220.388L123.675 219.969L123.253 219.865L122.832 220.284L123.148 221.436V221.855L123.043 221.96L122.726 222.064H122.41L122.093 222.169L121.777 222.588L121.039 223.531L120.933 223.95L120.828 224.683L120.933 226.045V226.779L120.09 229.188L119.773 229.607H119.668L118.93 229.293H118.613L118.297 229.398L117.875 229.712L117.559 229.817L119.141 230.131L121.672 231.702L122.832 232.017V231.702V231.178L122.937 230.445L123.253 230.026L123.781 229.921L124.308 230.026L124.413 230.34L124.097 230.759L124.413 231.074H124.73L124.835 230.969L125.152 230.655V230.759L125.257 230.864V230.969L125.363 231.283H125.468L125.574 230.759V230.236L125.257 229.817L124.941 229.398L125.257 228.978L125.574 228.559V228.036V227.617" fill="white"/>

<path d="M125.89 227.617V227.721H125.784H125.89V227.617ZM125.89 227.617V227.512H125.784H125.89V227.617ZM125.89 227.617L126.206 227.093V226.36V225.626L125.784 224.893L126.101 224.16L125.679 222.902L124.097 220.388L123.675 219.969L123.253 219.865L122.832 220.284L123.148 221.436V221.855L123.043 221.96L122.726 222.064H122.41L122.093 222.169L121.777 222.588L121.039 223.531L120.933 223.95L120.828 224.683L120.933 226.045V226.779L120.09 229.188L119.773 229.607H119.668L118.93 229.293H118.613L118.297 229.398L117.875 229.712L117.559 229.817L119.141 230.131L121.672 231.702L122.832 232.017V231.702V231.178L122.937 230.445L123.253 230.026L123.781 229.921L124.308 230.026L124.413 230.34L124.097 230.759L124.413 231.074H124.73L124.835 230.969L125.152 230.655V230.759L125.257 230.864V230.969L125.363 231.283H125.468L125.574 230.759V230.236L125.257 229.817L124.941 229.398L125.257 228.978L125.574 228.559V228.036V227.617" stroke="#DA3640" stroke-linecap="round"/>

<path d="M105.22 175.656L105.115 175.342L104.376 173.98L103.955 173.456L103.216 173.352H102.478L101.951 173.037L101.634 172.618L101.529 172.199L101.213 171.676L100.685 170.838L100.369 170.419L99.8417 170.104L99.1035 169.685L97.4162 169.371L96.6779 168.952L94.0415 165.6L93.6197 164.028L93.1978 163.295L91.1941 161.619L91.0887 161.2L90.7723 160.362L90.6668 160.257L90.3504 160.152L89.5068 159.314V159.209L89.4013 158.686H89.2959L89.1904 158.581L88.7686 158.686L88.4522 158.581L88.0304 158.686L87.714 158.581L87.6085 158.476V158.057L87.1867 157.324L86.8703 157.219L86.4485 157.324L85.9212 157.428L85.3939 157.114L84.5502 156.171L84.023 156.486L83.9175 156.8L84.023 157.952L83.9175 158.371L83.4957 158.79L81.9138 160.152L81.1756 160.571L80.4374 160.885L79.2773 160.99L78.4337 160.885H78.0118L77.6955 160.99L77.59 160.676L77.2736 160.571L76.8518 160.257L76.5354 160.152H75.6917L74.7426 160.466L74.2153 160.885L74.3208 161.724L74.7426 161.305V161.2L75.6917 161.619L76.43 162.143L77.8009 163.504L78.1173 163.923L78.5391 164.762L78.6446 165.076L79.0664 165.495L79.4882 165.6H79.8046L80.2265 165.704L80.5428 166.019L80.6483 166.123L80.9647 166.438V166.857L81.0701 167.276L81.5974 167.8L81.7029 168.533L82.1247 168.952L82.5465 169.057L82.8629 169.476L82.9684 169.79L83.2847 170.628L85.0775 173.561L85.6048 174.923L85.7103 176.495V177.333L85.8157 177.647L87.1867 177.542L88.0304 177.647L88.874 177.752L89.2959 178.066L88.9795 178.799L92.2487 180.79L93.6197 182.047L94.1469 183.618L94.2524 184.037L94.7797 185.294L94.8852 185.609L95.2015 186.028L95.0961 186.97V187.389L95.5179 187.913L96.0452 188.437L96.3616 189.17L95.9397 190.113H96.0452L96.3616 190.427L96.467 190.532L96.7834 190.951H97.2052L97.5216 190.637L97.6271 190.532L98.4707 191.056L98.8926 191.161L99.3144 190.427L100.264 191.161L100.58 191.475H100.896L101.213 191.37L103.005 189.275L103.322 188.437V185.818L103.638 183.723L104.06 182.885V182.466L103.955 180.266V179.113L104.693 178.171V178.485L105.22 177.228L105.326 176.39L105.22 175.656Z" fill="white" stroke="#DA3640" stroke-linecap="round"/>

<path d="M911.133 172.801L911.027 173.22L910.922 173.954V174.477L911.238 174.792H911.555L911.871 174.477L912.187 174.373L912.293 174.058V173.535L912.187 173.011L911.871 172.592L911.133 172.801Z" fill="white" stroke="#DA3640" stroke-linecap="round"/>

<path d="M920.835 173.011L920.518 172.697H920.097L919.675 172.801L919.358 172.906L920.202 173.011L921.467 173.849H921.995L921.467 173.325L921.151 173.011H920.835Z" fill="white" stroke="#DA3640" stroke-linecap="round"/>

<path d="M1031.78 279.341L1031.36 279.026L1030.93 279.445L1030.62 280.179L1030.72 281.017L1031.88 280.493L1031.99 280.388V280.074L1031.67 279.655L1031.78 279.341Z" fill="white" stroke="#DA3640" stroke-linecap="round"/>

<path d="M1028.82 279.655V279.131H1028.51V280.284L1028.61 280.807L1028.72 281.331H1029.04V280.807L1028.72 279.446V279.55L1028.82 279.655Z" fill="white" stroke="#DA3640" stroke-linecap="round"/>

<path d="M1036.73 283.217L1036.42 282.798L1036.1 282.903L1035.57 283.741L1035.47 284.264L1035.89 284.369H1036.31H1036.63L1036.94 284.893L1037.26 284.998L1037.37 284.579L1037.26 284.16L1036.94 283.426L1036.73 283.217Z" fill="white" stroke="#DA3640" stroke-linecap="round"/>

<path d="M964.178 225.6L963.018 225.704L962.174 226.228L961.436 226.333L960.487 225.495L960.065 226.438L959.749 226.752L958.589 227.171L958.167 227.59L957.851 227.904L956.691 229.476L956.374 230.209V230.733L956.796 231.047L957.323 230.942L958.062 230.628L958.483 230.314L959.327 228.533L959.749 228.428L960.171 228.533L961.753 228.847L962.174 228.952L962.596 229.371L963.124 229.476L963.651 229.371V229.057L963.229 228.219L963.651 228.533L964.6 229.371L964.705 229.476L965.233 229.371L965.655 229.057L965.971 228.638L966.076 228.114L965.76 227.695L965.444 226.857L965.338 226.542L964.178 225.6Z" fill="white" stroke="#DA3640" stroke-linecap="round"/>

<path d="M970.506 223.085H969.979H969.557L968.713 222.666L968.291 222.562L966.92 222.457L966.815 222.562V223.19V223.295H966.498H966.182L965.971 223.19L965.866 223.085H965.127H964.917L964.811 223.504L964.706 224.028L964.6 224.343V224.762L964.917 225.285L965.76 225.809L967.026 225.914H968.186L968.924 225.495L969.768 225.809L970.506 225.704L971.033 225.285L971.455 224.552V223.819L971.349 223.4L971.033 223.085H970.506Z" fill="white"/>

<path d="M970.506 223.085H969.979H969.557L968.713 222.666L968.291 222.562L966.92 222.457L966.815 222.562V223.19V223.295H966.498H966.182L965.971 223.19L965.866 223.085H965.127H964.917L964.811 223.504L964.706 224.028L964.6 224.343V224.762L964.917 225.285L965.76 225.809L967.026 225.914H968.186L968.924 225.495L969.768 225.809L970.506 225.704L971.033 225.285L971.455 224.552V223.819L971.349 223.4L971.033 223.085H970.506" stroke="#DA3640" stroke-linecap="round"/>

<path d="M954.16 217.743L955.003 218.476L955.847 218.371L956.585 217.638L956.902 216.486L956.374 215.648H955.109L953.949 216.486L954.16 217.743Z" fill="white" stroke="#DA3640" stroke-linecap="round"/>

<path d="M982.739 220.676L982.317 220.152L981.79 219.838L981.263 219.419L979.892 219L979.47 218.895L979.364 218.581H979.259L978.31 218.162L977.888 218.057L977.782 218.371L977.888 218.79L978.415 219.314L978.942 219.838L979.048 219.943H979.364L979.892 219.628H979.997L980.946 220.362L982.212 222.771L982.95 223.609L983.266 223.295L982.95 222.876L982.633 222.038L982.528 221.305L982.739 220.676Z" fill="white" stroke="#DA3640" stroke-linecap="round"/>

<path d="M977.255 220.152L977.15 219.733L976.728 219.628L976.306 219.524H975.884L976.306 218.686L975.884 218.371L975.146 218.895L974.619 219.628L974.724 220.047L975.251 220.152L976.517 220.885L976.939 220.781H977.255L977.361 221.095L977.677 221.2L977.993 221.095V220.781L977.888 220.676L977.466 220.257L977.255 220.152Z" fill="white" stroke="#DA3640" stroke-linecap="round"/>

<path d="M1010.16 274.208L1010.05 274.103L1009.63 273.789L1009.1 273.684L1008.79 273.998L1008.68 274.417V274.836L1008.15 276.198L1008.05 277.036L1007.94 278.817L1008.05 279.131H1008.47L1008.89 278.817L1009.21 278.503L1009.31 277.979L1009.63 277.56L1010.16 277.141L1010.58 276.827L1011 276.303L1010.9 275.465L1010.58 274.627L1010.16 274.208Z" fill="white" stroke="#DA3640" stroke-linecap="round"/>

<path d="M1023.34 256.294L1022.81 256.189L1021.97 255.351L1021.65 255.246L1021.13 255.561L1021.02 255.98L1020.7 256.294L1020.18 255.875V255.561L1020.07 255.142L1019.97 254.827H1019.75L1019.44 254.932H1019.12H1018.38L1017.96 255.037L1017.65 255.561L1017.22 256.503L1016.8 257.341L1016.49 257.446L1016.06 257.551L1015.96 257.656L1015.01 259.332L1014.48 260.17L1013.64 260.903L1013.53 260.379V259.227L1013.43 258.808L1013.32 258.494L1012.9 258.18L1012.58 257.761L1012.48 257.341V256.503L1012.58 255.98L1012.9 255.875L1013.32 255.77L1013.64 255.665L1013.95 255.246L1014.27 254.932L1012.69 252.523L1012.37 252.418L1012.27 252.104L1011.95 251.999L1011.53 252.313L1011.32 252.523L1011.21 252.942L1011.11 253.361L1010.69 253.465L1010.26 253.361L1009.95 253.046L1009.63 252.732L1009.31 252.627H1008.05L1006.36 252.942L1005.94 253.046L1005.2 253.78L1004.78 253.884H1004.25L1002.99 253.361L1002.25 253.256L1001.72 253.57L999.507 256.818L998.98 258.18L998.558 259.751L998.452 261.322L998.769 262.894L1000.88 267.922L1001.72 268.027L1002.57 267.608L1005.2 265.198L1005.94 264.36L1006.68 263.208L1007.1 262.056L1007.42 261.532L1007.84 261.218L1008.15 260.903L1009 259.227L1009.42 258.913L1009.95 258.808L1010.47 258.494L1010.79 257.551L1010.9 257.656L1011.21 257.761L1011.32 258.075L1011.42 258.389L1011.32 259.541L1012.16 264.256L1011.85 265.408L1010.16 266.56L1009.74 266.665L1009.42 266.77L1009.31 267.084L1009.42 267.503L1009.53 267.922L1009.84 268.027L1011.11 268.341L1011.42 268.76L1011.53 269.074L1011.85 269.179L1013.22 268.236L1013.64 268.132L1013.74 268.551L1013.85 269.389L1014.17 269.493L1014.48 269.179V268.341L1014.38 265.094L1014.8 263.522L1015.54 262.16L1015.85 262.056L1016.17 261.951L1016.59 261.846H1017.01L1017.33 261.951V262.37V262.789L1017.43 263.103L1018.17 263.208L1018.49 263.941L1018.59 265.198L1019.33 264.779L1020.28 265.513L1021.02 265.198L1021.34 264.884L1021.86 264.779L1022.29 264.675L1023.66 263.417L1024.61 262.475L1024.71 262.16V261.741V260.589L1024.82 259.856L1025.24 258.599L1025.34 257.761L1025.24 257.237L1024.82 256.818L1024.29 256.503L1023.34 256.294Z" fill="white" stroke="#DA3640" stroke-linecap="round"/>

<path d="M1036.21 280.912L1035.89 280.493L1035.57 280.074L1033.57 278.084L1033.04 278.922V279.76L1033.57 281.855L1033.68 282.274L1034.2 282.588L1035.05 282.693H1035.36L1035.68 282.379L1036 282.274L1036.52 282.588L1036.21 282.274V280.912Z" fill="white"/>

<path d="M1036.21 280.912L1035.89 280.493L1035.57 280.074L1033.57 278.084L1033.04 278.922V279.76L1033.57 281.855L1033.68 282.274L1034.2 282.588L1035.05 282.693H1035.36L1035.68 282.379L1036 282.274L1036.52 282.588L1036.21 282.274V280.912" stroke="#DA3640" stroke-linecap="round"/>

<path d="M1011.74 338.739L1011.42 338.215L1011 337.796L1010.47 337.482L1008.37 338.425H1007.94L1007.52 338.529V338.948L1007.84 339.263L1008.26 339.682L1009 340.415L1009.74 340.729L1010.16 340.31L1010.47 339.787L1011.21 339.891L1011.95 339.787V338.739" fill="white"/>

<path d="M1011.74 338.739L1011.42 338.215L1011 337.796L1010.47 337.482L1008.37 338.425H1007.94L1007.52 338.529V338.948L1007.84 339.263L1008.26 339.682L1009 340.415L1009.74 340.729L1010.16 340.31L1010.47 339.787L1011.21 339.891L1011.95 339.787V338.739" stroke="#DA3640" stroke-linecap="round"/>

<path d="M974.408 224.971L973.88 225.285L973.564 225.181L973.248 224.866H972.72L972.615 225.181V225.6L972.51 225.914L971.982 225.495L971.666 223.923V223.085L971.771 221.828L972.193 220.885L972.72 220.781L973.037 222.562L973.142 222.876L974.091 223.4L974.408 223.714L974.513 224.238V224.657L974.408 224.971Z" fill="white" stroke="#DA3640" stroke-linecap="round"/>

<path d="M1018.49 270.96L1018.91 271.065L1019.02 271.484V271.903L1018.91 272.322L1018.59 272.636L1017.86 272.951L1017.54 273.265L1016.7 274.627L1016.17 275.046H1015.33L1015.01 274.312L1015.33 273.579L1017.12 271.589L1018.07 270.855H1018.17L1018.49 270.96Z" fill="white" stroke="#DA3640" stroke-linecap="round"/>

<path d="M1026.93 268.446L1026.5 268.341L1026.19 268.446L1025.77 268.341L1025.34 267.608V267.084V266.77L1025.45 266.351L1024.92 264.675L1024.61 264.256L1024.29 264.151H1023.97L1024.08 264.675L1023.97 264.989H1023.55L1023.13 265.094L1022.81 265.617L1022.5 266.351L1022.39 266.77L1022.29 267.084V267.189L1022.39 267.503L1022.5 267.608L1022.81 267.713V268.132L1022.71 268.446L1022.6 268.76L1022.5 268.865V268.97V269.494L1022.39 270.017L1022.5 270.751L1022.6 271.589L1022.71 271.903L1023.02 272.217L1023.34 272.322L1023.66 272.217L1023.76 272.112H1024.08L1024.5 272.531L1024.92 272.636H1025.24H1025.66H1025.98L1026.08 272.531L1026.4 272.427L1026.93 272.008L1027.24 271.589V271.065L1027.35 270.227L1027.45 269.808V269.284L1027.14 268.865L1026.93 268.446Z" fill="white" stroke="#DA3640" stroke-linecap="round"/>

<path d="M945.512 194.696H945.09L944.247 194.172L943.825 194.067H942.981L941.399 194.801L940.661 194.905H939.923L939.396 195.01L938.868 195.324L938.341 195.848L938.025 196.372L937.708 196.686L937.392 196.791H936.97L935.704 196.477L935.177 196.372L934.228 195.534L933.701 195.22H933.173L932.013 195.743L929.799 196.058H929.061L928.533 195.743L928.428 195.429L928.322 194.905L928.217 194.801L927.901 194.696L926.741 194.591L926.635 194.486V194.172L926.319 193.858H925.897H925.475L924.948 193.962H924.526L923.788 193.648L922.628 192.496L921.889 192.182L915.562 192.286L915.035 192.391L912.187 193.753H911.66L910.922 194.067L910.5 194.486L910.078 194.905L909.656 195.324L908.813 196.058L907.231 197.629L905.122 200.667L903.118 202.867L902.274 204.229L901.958 204.543L901.852 205.905V206.429L901.325 207.162L901.22 207.895L901.114 209.467L900.587 211.038L900.27 211.876L899.849 212.4L898.583 213.343L898.372 213.762V214.076L898.478 215.019L898.161 216.695L898.056 217.428L897.634 218.162L897.529 218.686V219.524L898.267 224.133L898.583 224.971L899.532 226.228L899.849 226.961L899.743 227.38L899.427 228.114L899.321 228.533L899.427 228.952L899.743 229.79L900.27 233.142L900.798 234.714L906.387 242.99L906.809 243.409L908.496 244.666L909.34 244.77L910.078 244.351L910.922 243.828L911.66 243.513L912.504 243.618L912.925 244.037L913.347 244.875L913.769 245.608L914.086 245.713L914.402 245.818H915.246L915.667 246.132L915.984 246.551L916.406 247.389L918.62 250.742L918.726 251.161L918.831 251.58L918.726 251.894L918.409 252.208V252.523V252.942L918.304 253.361L917.987 254.199V254.618L918.304 255.037L919.991 256.818L920.413 257.656L920.729 259.018L921.046 259.856L921.573 260.589L921.995 261.008L924.21 260.065V259.751L926.635 259.018H927.584V259.122L927.479 260.275L927.584 260.589L928.006 260.694L928.85 261.008H929.693L932.119 260.694L932.857 260.379H933.279L933.701 260.484L934.544 261.322L934.861 261.637L936.443 261.741L937.603 261.322L938.446 260.379L939.817 258.284L939.923 257.76L940.239 256.399L940.556 254.722L940.872 254.199L941.294 253.78L941.821 253.256L942.348 252.732L942.876 252.627L943.297 252.313L943.719 251.789L944.247 250.637L945.09 249.38L947.199 247.704L949.203 244.666L950.047 243.723L951.734 242.047L952.261 241.732L953 241.628H954.371L954.687 241.523L954.792 241.104L954.687 240.685L954.792 240.371L955.109 240.266L955.952 239.952H956.374H956.796L957.112 240.056L957.218 240.161L957.323 240.266L957.429 242.466V242.885L958.378 243.723L958.8 244.142L958.905 244.456L959.222 244.561H962.28L963.967 244.875L965.338 245.189L966.709 245.504L968.08 244.98L969.346 244.247L970.084 244.142L970.928 244.037L971.771 244.142L972.509 244.456H973.248L974.091 243.932L974.513 243.094L974.935 241.837L975.251 240.685L975.146 239.952L976.517 238.799L976.939 238.694L984.215 238.38L985.586 238.066H986.957L989.488 238.799L990.754 238.694L991.07 238.59L991.175 238.485L991.492 238.38L991.808 238.275L992.336 238.38L993.074 238.904L994.023 239.218L994.55 239.532L995.077 239.847H995.921L997.608 239.113L1002.14 238.694L1002.67 238.59L1003.2 238.275L1003.73 237.856V237.542L1001.51 237.018L1001.19 236.494L1001.09 236.39L1000.56 236.285L997.292 236.18L996.87 236.075L996.343 235.761L996.027 235.447L995.71 235.133V234.714L996.238 234.399L996.765 234.818L997.187 234.714L998.136 233.98L998.452 233.666L998.558 233.561L998.663 233.456L999.19 233.771H999.507L999.823 233.666L999.929 233.352L1002.99 233.247L1003.73 233.142L1004.15 233.456H1004.89L1005.62 233.352L1006.05 233.247L1006.47 232.828L1006.89 231.99L1007.31 231.676H1007.84L1013.74 232.095L1014.9 232.514L1017.43 233.876L1019.65 234.714L1020.07 235.133L1019.65 235.552V235.656V235.971L1020.07 236.285V236.39L1020.18 236.809L1020.28 236.914L1020.6 237.018H1021.02L1020.91 237.752L1021.44 238.694L1020.91 239.952L1021.02 241.313L1020.7 242.047L1019.75 242.99L1019.44 243.513L1019.02 246.761L1018.7 247.494L1017.75 248.751L1016.17 249.17L1014.59 248.856L1013.64 248.123L1012.48 246.761L1012.16 246.447L1012.06 246.132L1010.37 244.875L1010.26 244.456L1010.58 243.618L1010.69 243.199L1010.37 242.675L1010.05 242.361L1009.21 241.628L1008.37 241.313L1007.1 242.885H1006.36L1005.2 243.409L1001.83 243.513L1000.46 243.932L999.085 243.513L998.241 244.456L996.659 247.808L996.343 248.332L995.394 249.275L995.288 249.589L995.183 249.904L995.077 250.218V250.427L994.972 250.846L994.656 250.951L994.234 251.056L993.917 251.161L992.757 251.894L992.336 252.627L991.914 254.303L991.492 254.722L990.121 255.246L989.594 255.98L988.012 258.18L987.484 258.494L987.168 258.808L987.063 259.227L986.957 259.541L986.535 260.379L986.219 260.484L983.688 262.894L982.844 264.046L982.317 264.57L980.102 265.722L977.571 267.503L976.306 268.446L975.779 268.865L975.357 268.76L974.935 268.341L974.408 268.236H973.669L972.298 268.97L971.56 269.284L971.138 269.179L970.611 269.074H970.189L969.873 269.179L969.767 269.284L969.662 269.598L969.557 269.703L968.397 270.436L967.658 270.751H967.236L966.393 271.17H965.655L964.284 271.065L964.178 271.798H963.862L963.335 272.217L962.913 272.531H962.596L962.174 272.846L961.858 273.579L961.436 274.836L960.593 277.036L960.065 277.979L959.222 278.922L958.378 279.655L957.218 280.074L955.952 280.388L953.738 280.493L953.316 280.388L952.894 280.284L952.578 279.969L952.472 279.655L951.945 278.712L951.629 278.607L951.207 278.503L951.101 278.398L949.941 278.084L949.519 277.35V276.827L949.414 276.408L948.465 276.093H946.883L946.567 275.988L946.145 275.255L946.039 275.15L944.774 275.255L944.247 276.408L944.563 277.56L945.828 277.246L945.934 277.769L945.828 278.503L945.512 279.341L945.196 280.179L945.301 280.493L945.618 280.807L945.723 281.226V282.798L946.145 282.484L946.461 282.169L946.778 281.855L947.094 281.436L947.199 281.017L947.305 280.493L947.41 280.074L947.938 279.76L948.359 280.493L949.098 281.855L950.258 282.588L950.68 283.322L951.101 283.845L951.945 283.741L952.789 284.683L953.527 287.302L954.265 288.455L955.847 288.979L957.218 288.874L958.8 288.979L960.171 290.131L961.12 291.283L963.124 292.959L963.967 294.112L964.705 295.474L965.022 296.207V296.94L965.338 297.464L967.026 299.14L968.291 301.235L968.818 302.492L969.978 303.854L970.295 304.588V305.321L970.189 306.997V307.416L971.877 309.197L972.72 309.93L973.248 310.245L974.513 310.349L974.829 310.454L974.935 310.559L975.04 310.978L975.357 311.083L975.779 311.187L976.095 311.292L976.2 311.816L976.306 312.654L976.411 313.387L976.939 313.806H978.31L979.048 313.911L979.891 314.225L980.735 315.587L979.997 316.844L979.153 318.206L979.575 319.568L979.891 319.673L980.735 320.197L983.372 322.711L983.688 322.816L984.11 322.501L984.637 322.187L984.953 322.082L985.059 322.501L985.164 322.92L985.481 323.339L985.903 323.444L986.324 323.13L986.43 323.235V323.654L986.114 324.177L985.797 324.282L985.27 324.387L985.164 324.492L985.059 324.806L985.164 325.225V325.539L985.059 326.063V326.482H984.953H984.532L984.426 326.377L984.004 326.063L983.688 325.958L983.583 326.063L983.477 326.168H983.372L982.528 325.435L981.79 326.168L980.102 324.073L977.044 321.663L976.306 321.244L975.779 320.93L975.04 320.825H974.513L972.404 321.139L971.666 321.035L963.124 317.578L961.753 317.263L957.851 317.159L955.32 316.844L955.847 316.321L961.436 310.768L961.858 309.93L962.174 309.197L962.28 308.359V307.626V306.892L961.964 305.949L961.542 305.111L961.12 304.588L960.276 303.854L956.585 302.073L955.425 301.34L953.211 299.35L951.207 296.94L950.469 296.416L949.73 295.893L947.938 295.055L946.145 294.531L926.635 290.655L925.264 289.921L920.202 285.836L918.937 284.474L917.671 283.112L913.875 277.35L913.136 276.617L912.293 276.303L911.555 276.408L911.133 276.722L910.816 277.141L910.5 277.874L910.394 278.293L910.078 278.607L909.234 278.712L908.074 278.607L903.329 277.246L901.22 276.931H900.06L899.321 277.246L896.369 278.607L894.259 279.865L892.994 280.598L892.467 280.493L892.045 280.388L891.728 280.074L891.307 279.55L891.201 279.026V278.188V277.665L891.728 275.884L892.045 274.941V274.417L891.939 273.684L891.201 272.741L890.252 271.484L889.408 270.646L887.721 268.551L887.405 267.817L887.088 266.874L886.561 263.208L886.139 262.265L885.823 261.532L885.295 261.113L884.768 260.903L880.55 259.332L880.023 259.018L879.601 258.599L879.284 257.865V257.132L879.706 255.875L880.128 255.142L880.655 254.722L882.87 253.361L883.186 252.837L883.292 252.104L882.975 250.951L882.132 248.542L882.026 247.704V246.447L882.132 242.361L882.026 240.79V240.685L882.343 240.58L882.764 240.266L883.186 239.428L883.292 239.323L884.452 238.799L886.139 237.437L885.295 236.494V236.39L885.401 235.971L885.717 235.866L886.561 235.447L886.983 235.028L887.721 234.085L888.143 233.771V234.085L888.67 235.447L888.776 236.285L890.147 238.904L890.674 240.894L891.201 241.837L891.939 242.361L892.467 240.999L892.572 240.161L892.677 239.323L892.572 239.009L892.256 238.59L892.15 238.275L892.256 237.018L892.15 236.599L892.045 236.18L891.201 235.237L890.885 234.818V234.399L890.041 232.828L889.619 231.466L889.514 230.209L889.408 229.79L888.986 228.638L888.881 227.904L889.725 219.628L890.041 218.476L890.463 218.057L890.779 217.533L890.674 216.59L890.568 215.438L890.252 214.914L889.092 215.333L887.932 215.648L886.877 215.333L886.034 214.809L885.295 214.076L884.557 213.133L884.241 211.876L884.346 210.933L884.874 211.248L885.295 211.352L885.612 211.457V211.038V210.619L885.717 210.305L885.823 210.2L886.877 210.619L887.405 211.143L888.354 212.4L889.197 213.552L889.619 213.971L890.357 214.286L891.096 214.6H891.412L891.728 214.286L892.256 213.448L892.572 212.714L893.31 209.676L893.732 208.733L892.994 207.581L890.357 204.229L890.041 203.81V203.391V202.657L890.357 202.343L892.467 201.61L892.994 200.877V200.353L892.677 199.829L892.361 198.991L892.677 198.258L893.521 196.896L893.943 196.162V195.743L894.048 195.01L894.154 194.696L894.47 194.277L894.892 193.962L895.314 193.858L895.736 193.753L896.474 193.439L898.161 193.334L898.9 192.915L899.321 191.658L899.216 190.296L898.794 188.934L898.689 187.572L898.794 186.839L898.9 185.896L899.321 185.163L900.06 184.849H900.376L901.325 184.534H901.747L902.063 184.429L904.489 183.277L905.332 182.858L906.071 182.334L906.387 181.601L906.809 177.934L907.125 176.677L907.969 175.839L909.34 175.735L910.184 176.258L910.289 176.992L909.973 178.563L910.078 180.239L910.184 180.763L910.711 180.344H910.816L911.133 181.077L911.555 181.601L912.082 182.02L912.82 182.334L913.98 182.649L914.718 182.963L914.824 182.858L915.14 182.544L915.246 182.439L916.089 182.544L916.617 182.649L917.144 182.963L917.671 183.487H918.093L918.62 182.963L919.569 181.706L919.148 180.868L919.675 179.296L921.362 176.782L922.1 175.944L922.417 175.839L922.733 175.944L923.155 176.258L923.577 176.573L923.999 176.468L924.315 176.154L924.42 175.42L924.737 175.001L925.053 174.896L925.897 174.582L926.213 174.477L926.53 173.954L926.635 173.43L926.53 171.23V170.811L926.635 170.706V170.392L926.741 170.078L927.057 169.659H927.162L927.479 168.82V168.297V166.725L927.162 165.468V164.525L927.584 164.002L928.006 163.897L928.744 164.002H929.166L929.482 163.897L930.432 163.059L930.326 164.002L930.432 164.525L930.748 164.421L931.486 163.583L931.908 163.268H932.646L936.021 164.002L936.759 163.897L938.552 164.421L939.396 164.84L940.345 165.992L943.297 167.563L945.09 166.621H945.828H947.41L948.149 166.306L948.992 165.782L949.73 165.259L950.047 165.154L950.469 165.468L950.785 165.782V166.201V166.725L950.68 167.04L950.363 167.144L949.519 167.459L949.414 167.563V167.878L949.73 168.297L949.836 168.716L949.941 169.03L949.836 169.344L949.941 169.659L950.047 170.078L950.785 170.811V171.125L951.207 171.649L952.894 173.011L953.632 173.43L955.003 173.744H956.585L967.131 172.487L967.869 172.801L968.291 174.477L968.818 175.001L969.557 175.315L970.295 175.211L970.822 174.896L971.666 173.954L972.193 173.849L973.037 173.954L975.146 174.792H976.306L976.728 174.896L977.044 175.001L976.939 175.106L974.935 176.468L971.56 178.039L969.767 178.353L965.971 177.096L965.444 176.992H965.127H964.705L964.284 177.096L959.96 178.877L957.745 179.611L956.796 180.134L956.058 180.239L953.949 180.763L952.367 181.287L951.84 181.391H951.523L951.101 181.287L950.785 181.182L949.203 180.868H948.254H947.727L946.883 180.972L946.461 181.287L944.879 182.125L944.458 182.439L944.036 182.963L943.508 183.801L943.087 184.325L942.77 185.268L942.454 185.687L942.032 186.001L941.716 186.315L939.712 187.048L941.716 189.144L942.137 189.877L942.665 190.401L943.192 190.715L943.93 190.82L944.458 190.925L944.774 191.029H945.09H945.407L945.512 190.925H945.618H945.723L945.828 191.029L945.934 191.344L946.039 191.763L946.145 193.858L946.039 194.277L945.512 194.696Z" fill="white" stroke="#DA3640" stroke-linecap="round"/>

<path d="M342.396 273.291L342.501 274.025V274.444L342.396 274.863L341.868 275.806L341.552 276.225L340.708 277.482L340.603 278.32V278.844L340.708 279.263L341.025 280.206L341.763 279.472L342.185 277.691L342.607 277.272L343.556 277.377L344.294 278.11L345.032 278.844L345.77 279.263L346.192 279.682L345.876 280.625L345.349 281.777L344.927 282.301L344.61 282.615L344.505 282.929V283.244H345.032L345.56 282.929L346.403 281.986L346.825 281.567L346.93 282.301V283.139L347.036 283.663L347.563 283.977L347.669 284.082L347.774 284.186H347.88L347.985 284.082V283.977L348.091 283.872L348.407 283.767H348.512L349.251 283.034L350.832 282.615L352.414 282.929L353.68 284.082L354.523 285.653L354.84 287.224L354.523 288.586L353.996 289.843L352.836 291.519L350.305 294.557L349.778 294.872L349.251 294.976H347.669L347.247 295.291L346.72 295.71L345.56 296.548L344.821 297.072L347.352 295.919H348.618L349.356 297.281V298.853L349.251 299.691L348.829 300.948V302.624L348.723 303.148L348.301 303.462L347.563 303.776L346.825 304.09L346.298 304.195L345.876 304.3L344.716 305.033L343.556 306.186L342.818 307.128L342.29 308.386L342.396 309.747H342.29V309.852L342.185 310.166L342.712 309.747L343.239 309.014L343.661 308.176L343.767 307.338L344.083 306.814L344.61 306.395L345.77 305.557L348.301 304.405L349.251 303.671L349.989 302.519L350.727 300.319V299.481V297.91L350.832 297.386L351.254 296.653L352.414 295.5L352.942 294.767L353.469 293.196L353.996 292.777L354.734 292.672L355.473 292.986L355.789 293.719V294.557V295.396L356.527 295.919V295.081L356.949 294.557L357.476 294.243H358.32L359.058 294.348L359.585 294.767L360.007 295.291L360.535 295.605H360.956L361.695 295.5L362.116 295.396L362.538 295.71L362.96 296.129H363.277L364.015 296.024L366.229 295.081L367.073 294.976H367.917L368.76 295.081L370.026 295.815L370.87 295.919L372.662 296.024L375.721 296.443L377.302 296.548L378.146 296.653L378.884 296.967V297.281H378.779H378.463H378.357L378.779 297.7L379.306 297.386L379.833 296.967L380.15 296.653H380.888L381.415 296.967L381.837 297.386V298.329L381.732 299.167L380.994 300.529L380.888 301.367V302.205L380.994 303.043L381.31 303.776L381.626 304.51L382.048 305.033L382.575 305.767L383.314 306.186L384.263 306.605L385.001 306.919L385.423 307.024H386.266H386.688L387.11 307.128L387.637 308.386L387.532 313.309L388.27 314.671L389.219 315.823L390.59 316.557L392.172 316.871L392.594 316.766L393.332 316.662H393.754H394.176L394.703 317.081H395.019L395.547 317.395L395.969 317.814L396.707 318.966L397.023 320.223V323.052L397.129 324.623L397.234 324.937L397.761 325.776L397.867 326.195L397.761 326.614L397.656 327.347V327.766L397.234 328.185L394.809 329.337L393.649 330.28L392.383 331.642L391.434 333.004L390.696 334.68L388.481 342.537L388.797 343.899L389.641 345.051L392.594 347.146L393.332 348.299V349.556L392.805 351.127L390.379 354.479L390.063 355.632L389.747 356.889L388.903 359.403L388.587 359.927L387.321 359.298L386.477 359.403L385.95 359.717H384.579L384.263 359.403L383.946 358.565L383.63 358.251L383.314 357.936L382.47 358.041L382.364 357.727L382.259 357.308V356.994V356.679L381.943 356.365L381.626 356.051H381.31L380.783 356.155L380.677 356.051V355.736L380.783 355.003L380.888 354.689V354.27L380.783 353.956L380.677 353.851L380.361 353.327L380.255 352.908L379.939 352.489L379.517 352.07L379.201 351.651L378.673 350.918L378.357 350.813H377.935L377.83 350.708L377.724 350.394V350.079L377.619 349.765L377.513 349.241L377.092 348.927L376.142 348.508L374.982 348.403L374.561 347.984L374.033 347.041L373.611 346.727L373.19 346.622H372.768L372.346 346.937H371.924L371.608 346.832L371.291 346.413L370.87 345.575L370.553 345.261L370.237 345.156L370.131 345.261L370.026 345.68L369.92 345.994L369.815 346.308V346.727V347.041L369.709 347.146H369.604L369.499 347.251V347.356L369.393 347.461V348.194V348.508L368.971 349.765L368.866 350.079L368.128 350.289L367.706 350.603L367.284 350.708H366.862L366.335 350.603H366.018L365.702 350.708L364.964 351.232L364.647 351.546L364.12 351.86L363.804 351.965L363.698 352.384V352.698L363.593 353.432V353.746V353.851L363.066 354.689L362.96 355.003V355.108V355.213L363.277 355.632V355.736L363.171 356.051L362.222 356.575L361.8 356.994L361.484 357.308L361.167 357.832L361.062 358.355L360.746 358.67L360.218 359.193L359.796 359.508L359.48 359.927L358.215 360.451L356.422 360.87L355.051 361.289L353.469 361.708L347.563 364.536L344.927 365.06H343.134L342.29 365.374L340.076 366.317L339.232 366.841L338.072 367.784L337.65 368.203L334.381 369.46L334.065 370.403L333.748 371.345L333.854 372.498L334.275 375.012L334.381 375.536L334.275 376.06L333.959 376.583L333.643 376.898L333.537 377.212L333.01 377.526L332.905 377.631V378.364L332.799 378.469V378.783V379.098L333.115 379.412L333.537 379.726V379.831L333.643 380.669L333.748 380.983V381.402L334.486 381.926L334.592 382.24L335.014 382.555L335.119 382.659L335.225 382.974L335.33 383.078V383.602L335.225 383.917L334.697 384.859L334.17 385.593L334.065 385.697H333.643L333.221 385.802L332.061 385.488L330.795 385.593L328.792 386.955L326.155 387.478L325.206 387.374H324.046L322.781 387.269L320.671 386.955H319.3L318.773 386.85L318.457 386.535L318.351 386.221L318.246 385.802L318.14 385.488L318.246 385.069V384.755V384.336L318.14 384.021L317.824 383.707L317.508 383.602L316.98 383.288L314.977 382.136L314.66 381.402L314.238 381.088L313.5 380.669L313.395 380.355L313.289 379.936V379.412L312.34 376.164L312.235 375.745L311.918 375.431L311.496 374.174L310.336 372.917L310.02 372.393L309.704 371.45L309.387 368.412L309.282 367.679L308.965 367.365L308.544 367.05L308.122 366.946L306.54 366.841H306.013L305.064 366.527L303.482 365.374L301.373 365.269L300.212 364.85L298.525 363.908L296.943 363.593L295.994 363.07L295.256 362.965L294.94 362.86L294.412 362.965L293.99 362.127L293.674 359.193L293.569 358.46L292.619 356.26L292.303 355.108L292.198 354.794L291.881 354.479H291.565L291.143 354.06H290.827H290.51L290.088 354.165H289.139H288.401H287.979H287.136L286.397 354.584L284.816 353.327L284.499 353.222L283.761 353.118L282.495 353.432L281.968 353.537L281.546 353.432L279.859 352.698L279.121 352.384L278.699 351.965L277.855 350.603L277.433 350.184L276.168 349.346L275.641 348.927L275.324 348.403L274.902 347.88L273.953 347.356L273.848 346.832L274.692 346.727L275.852 346.413L276.379 346.099L280.703 342.013L281.441 341.489L282.285 341.175L283.023 340.651L283.445 340.337V339.813L283.339 339.394L282.917 338.87V338.451V338.347H283.339L284.183 338.766H284.71H285.132L285.554 338.661H285.976L286.819 338.766L287.347 338.032L287.768 335.099L287.663 334.261L287.557 333.318V333.004L287.241 332.69L287.136 332.375L286.714 332.061L286.292 331.956L285.343 331.851L284.605 331.537L282.495 331.223L282.074 330.909L279.964 329.652L279.648 329.233L279.226 328.08L279.121 327.766L278.699 327.661L278.172 327.766L277.328 328.29L275.746 329.442L274.586 330.594L274.27 330.909L273.848 331.013L273.11 330.699L271.95 330.175H271.633L271.317 329.861L270.895 329.547L270.368 329.023L269.84 328.499L269.524 328.185L269.102 327.661L268.786 327.242L268.259 326.928L267.942 326.823L267.626 326.509L267.52 326.404V326.09L267.626 325.985L267.731 325.671L267.837 325.566L267.942 325.252L268.048 323.995L268.364 323.261L268.469 322.947L268.364 322.633L268.259 322.214L267.837 321.899L267.309 321.48L266.466 320.642L264.251 319.909L263.829 319.804H263.513L263.197 320.119L262.88 320.433L262.564 320.538H262.247L261.72 320.433L260.982 320.014H260.56H260.138L259.822 319.909L259.4 319.804L258.451 318.442L258.345 318.023H258.662L259.189 317.919H259.506V317.814L259.4 316.976L259.295 316.452L258.978 316.138L258.24 315.719L256.658 314.147L256.236 313.728L255.709 312.471L255.393 312.052L254.971 311.633L254.022 310.9L253.284 309.957L254.654 308.595L255.076 308.281L256.658 307.967L257.396 307.548L259.189 306.395L260.138 304.719L261.509 305.662L263.302 306.186L264.989 307.128L265.833 307.548L266.782 307.862L267.626 307.967H268.153L268.68 307.862L269.208 307.548L271.422 307.443L271.95 307.128L272.266 306.814L272.582 306.29L272.899 305.871L273.426 305.348L275.113 304.51L275.641 304.09L276.379 303.357H276.695L276.801 303.462L276.906 303.567L277.328 303.462L278.066 303.148L278.594 302.624L279.015 302.1L281.546 298.329L281.652 297.91L281.546 297.491L281.441 297.176L281.019 296.862L280.914 296.443L280.808 296.024L280.914 295.291L281.23 294.767L281.652 294.453L282.074 294.348L282.812 294.453L283.761 294.767L284.921 294.872L286.186 295.291L287.136 295.396L288.296 294.872L290.088 295.71L291.038 296.024L291.776 295.919L293.358 295.396L293.779 295.081L293.885 294.662L293.99 294.243L293.885 293.719L293.569 293.3L293.252 292.881L292.936 292.462L292.619 292.043V291.519L292.936 290.786L293.463 289.948L294.201 288.586L294.94 288.272L295.467 288.377L295.783 288.796L296.31 289.32L296.838 290.577L297.154 291.415L297.471 291.938L301.583 295.815L302.322 296.129H302.743H303.06L303.165 296.024V295.71V295.396V295.081V295.815V295.71V295.396V295.081V294.138L302.743 292.462V292.148V291.729L302.849 291.31L303.165 290.996L303.482 290.891L304.853 290.786L305.38 290.681L305.907 290.367L306.224 290.053L306.329 289.739V289.634L306.224 289.32L305.802 288.9L305.696 288.796L305.274 287.958L305.169 286.805L305.591 282.51L305.274 281.777L305.802 281.358L318.457 275.177L319.617 274.863L320.988 274.968L326.999 276.329L328.686 276.434L330.901 276.12L333.959 275.282L334.486 274.863L334.908 274.444L335.857 272.034L335.963 271.615L336.279 271.511L336.596 271.196H337.123L337.65 271.301L338.599 271.825L339.759 272.663L340.076 272.768L340.498 272.872H340.814L341.341 272.558L342.396 273.291Z" fill="white" stroke="#DA3640" stroke-linecap="round"/>

<path d="M881.077 241.654L880.549 241.969L880.444 242.492L880.022 244.064L879.706 244.588L879.284 245.007L878.967 245.74L878.651 247.73L878.229 249.092L877.913 250.454L877.596 250.978L877.069 251.397L876.331 251.502L875.909 251.606L875.593 252.025L875.276 252.444L874.96 252.864L874.116 253.597L873.273 254.54L872.745 255.692V257.054L873.484 258.625V259.359L873.378 259.778L872.535 260.511L872.429 260.825L872.113 261.244L872.218 261.349V261.663L872.535 264.596L872.64 265.016L873.484 267.425L873.378 268.158L872.64 269.52L872.535 270.253L872.64 271.825L873.378 274.863L873.695 275.596L874.222 276.12L874.538 276.434L874.855 276.539V276.853V277.272L874.433 280.52L874.116 281.358L873.695 281.777L873.167 281.672L872.64 281.358H872.113L871.269 281.463L870.109 282.196L869.371 283.139L868.422 287.015L867.894 287.958L866.629 289.948L866.945 290.472L866.84 290.891L866.523 291.415L866.418 291.729L866.523 295.395L866.629 296.234L866.734 298.433L866.629 298.853L864.836 300.424L864.098 300.738L863.36 301.052L862.832 301.786L862.516 303.043L862.2 303.462L861.778 303.776L861.04 304.195L860.196 304.929L858.509 306.081L857.77 306.395L856.927 306.29L856.399 305.871L855.978 305.348L855.239 305.243L854.712 305.557L854.185 306.29L853.868 307.128L853.763 307.652V309.328L853.658 309.747L853.13 310.481L853.025 310.795L853.13 311.633L853.552 312.995V313.833L855.134 313.309L855.872 313.204L856.821 313.519L857.243 313.623L857.559 313.938L857.665 314.252L857.77 314.776L857.665 315.719L857.559 316.138L857.032 316.871L856.716 318.023L856.61 320.852L856.505 321.376L855.978 321.48H855.345L854.501 321.061H854.185L853.868 321.166L853.341 321.899L853.236 322.214L853.341 322.633L853.658 323.366L853.763 323.68L853.868 324.099L854.185 324.414L854.607 324.728L854.923 324.833L855.239 325.147L855.345 325.985L855.767 328.394L856.505 329.652L856.399 330.175L856.083 330.909L855.978 331.432L856.083 332.27L856.399 333.004L856.716 333.842L857.559 334.994L858.825 338.661L859.247 339.394L859.669 339.708L859.985 339.604L860.512 338.766L860.829 338.451L861.145 338.556L861.567 339.08H861.989L861.883 337.927L862.832 337.404L865.469 337.089L865.996 336.985L866.84 336.461L867.578 336.356H868.105L868.633 336.67L869.371 336.775L870.109 336.461L870.636 336.147L872.007 334.994L872.324 334.575L872.429 334.47L872.956 334.366L874.222 334.47L875.171 334.994L876.12 335.518L877.28 336.042L878.124 335.937L878.44 336.042L879.178 336.356L879.495 336.461L879.178 334.366L878.44 332.27L878.335 331.747L878.229 33
<truncated 338104 bytes>

NOTE: The output was truncated because it was too long. Use a more targeted query or a smaller range to get the information you need.</svg>